<svg xmlns="http://www.w3.org/2000/svg" width="40" height="40" viewBox="0 0 40 40"><g transform="translate(-1112 -32)"><g transform="translate(1112 32)" fill="#fff" stroke="#90278e" stroke-width="2"><rect width="40" height="40" rx="5" stroke="none"/><rect x="1" y="1" width="38" height="38" rx="4" fill="none"/></g><g transform="translate(975 8)"><rect width="24" height="24" transform="translate(145 32)" fill="none"/><g transform="translate(148 35)"><path d="M230.126,231.842a2.272,2.272,0,0,0,2.272-2.272v-2.839a2.272,2.272,0,0,0-2.272-2.272h-.284a4.5,4.5,0,0,0-4.163,2.726,16.995,16.995,0,0,0,.006,12.721,4.5,4.5,0,0,0,4.157,2.726h.284a2.272,2.272,0,0,0,2.272-2.272v-2.839a2.271,2.271,0,0,0-2.272-2.272h-3.314a15.493,15.493,0,0,1,0-3.408Zm-2.351-3.771a2.231,2.231,0,0,1,2.067-1.34h.284v2.839h-2.874a12.577,12.577,0,0,1,.523-1.5Zm2.351,9.45v2.839h-.284a2.232,2.232,0,0,1-2.073-1.34,12.589,12.589,0,0,1-.517-1.5Z" transform="translate(-224.447 -224.459)" fill="#90278e"/><path d="M389.4,315.465l1.607,1.607.8-.8a4.543,4.543,0,0,0,0-6.426l-.8-.8-1.607,1.607.8.8a2.271,2.271,0,0,1,0,3.212Z" transform="translate(-379.51 -303.968)" fill="#90278e"/><path d="M444.572,255.43l-1.607,1.607.812.8a6.815,6.815,0,0,1,0,9.655l-.812.795,1.607,1.607.8-.8a9.086,9.086,0,0,0,0-12.849Z" transform="translate(-429.863 -253.573)" fill="#90278e"/></g></g></g></svg>