<svg xmlns="http://www.w3.org/2000/svg" width="24.099" height="24.099" viewBox="0 0 24.099 24.099"><path d="M12,24.1h0Zm.085,0h0Zm-.122,0h0Zm.161,0h0Zm-.2,0h0Zm.235,0h0Zm.039,0h0Zm-.319,0h0Zm.358,0h0Zm-.4,0h0Zm.434,0h0Zm-.47,0h0Zm-.044,0h0Zm.553,0h0Zm-.592,0h0Zm.63,0h0Zm.039,0h0Zm-.7,0h0Zm-.034,0h0Zm.777,0h0Zm.039,0h0Zm-.865,0h0Zm-.035,0h0Zm.939,0h0Zm-.973,0h0Zm1.012,0h0Zm-1.06,0h0Zm1.1,0h0Zm-1.134,0h0Zm1.172,0h0Zm-1.206,0h0Zm1.245,0h0Zm.039,0h0Zm-1.314,0h0Zm1.353,0h0Zm-1.4,0h0Zm-.034,0h0Zm1.477,0h0Zm-1.51,0h0Zm1.548,0h0Zm.038,0h0Zm-1.636,0h0Zm-.034,0h0Zm1.708,0h0Zm-1.742,0h0Zm1.78,0h0Zm-1.826,0h0Zm1.864,0h0Zm.038,0h0Zm-1.937,0h0Zm-.034,0h0Zm2.01,0h0Zm-2.047,0h0Zm2.085,0h0Zm.038,0h0Zm-2.164,0h0Zm-.035,0h0Zm2.237,0h0Zm-3-.1a12.05,12.05,0,1,1,3.766,0v-8.42H16.74l.534-3.483H13.932V9.789A1.742,1.742,0,0,1,15.9,7.908h1.519V4.942a18.529,18.529,0,0,0-2.7-.235c-2.752,0-4.551,1.668-4.551,4.688V12.05H7.107v3.483h3.059Z" transform="translate(0 0)" fill="#fff" fill-rule="evenodd"/></svg>