<svg xmlns="http://www.w3.org/2000/svg" width="24.099" height="24.099" viewBox="0 0 24.099 24.099"><path d="M12.05,0A12.05,12.05,0,1,1,0,12.05,12.055,12.055,0,0,1,12.05,0ZM8.282,18.822V9.411H5.154v9.41Zm11.279,0v-5.4c0-2.89-1.543-4.235-3.6-4.235a3.107,3.107,0,0,0-2.819,1.554V9.411H10.013c.041.883,0,9.41,0,9.41h3.128V13.566a2.138,2.138,0,0,1,.1-.764,1.712,1.712,0,0,1,1.6-1.144c1.131,0,1.584.863,1.584,2.128v5.035h3.128ZM6.739,4.874A1.63,1.63,0,1,0,6.7,8.126h.02a1.631,1.631,0,1,0,.021-3.252Z" fill="#90278e" fill-rule="evenodd"/></svg>