<svg xmlns="http://www.w3.org/2000/svg" width="24.099" height="24.099" viewBox="0 0 24.099 24.099"><path d="M12.05,0A12.05,12.05,0,1,1,0,12.05,12.055,12.055,0,0,1,12.05,0ZM9.927,18.458a8.192,8.192,0,0,0,8.248-8.248c0-.126,0-.252-.006-.373a5.938,5.938,0,0,0,1.449-1.5,5.883,5.883,0,0,1-1.665.457,2.9,2.9,0,0,0,1.274-1.605,5.871,5.871,0,0,1-1.839.7,2.9,2.9,0,0,0-5.013,1.984,2.657,2.657,0,0,0,.078.661,8.223,8.223,0,0,1-5.975-3.03,2.9,2.9,0,0,0,.9,3.865,2.847,2.847,0,0,1-1.31-.361v.036A2.9,2.9,0,0,0,8.394,13.89a2.891,2.891,0,0,1-.763.1,2.765,2.765,0,0,1-.547-.054,2.894,2.894,0,0,0,2.705,2.014,5.827,5.827,0,0,1-3.6,1.238,5.276,5.276,0,0,1-.691-.042,8.076,8.076,0,0,0,4.43,1.31Z" fill="#90278e" fill-rule="evenodd"/></svg>