<svg xmlns="http://www.w3.org/2000/svg" width="24.099" height="24.099" viewBox="0 0 24.099 24.099"><path d="M12.05,0A12.05,12.05,0,1,1,0,12.05,12.055,12.055,0,0,1,12.05,0Zm0,4.519c-2.045,0-2.3.009-3.105.045a5.528,5.528,0,0,0-1.828.35,3.851,3.851,0,0,0-2.2,2.2,5.529,5.529,0,0,0-.35,1.828c-.037.8-.045,1.06-.045,3.105s.009,2.3.045,3.105a5.529,5.529,0,0,0,.35,1.828,3.851,3.851,0,0,0,2.2,2.2,5.53,5.53,0,0,0,1.828.35c.8.037,1.06.045,3.105.045s2.3-.009,3.105-.045a5.529,5.529,0,0,0,1.828-.35,3.851,3.851,0,0,0,2.2-2.2,5.529,5.529,0,0,0,.35-1.828c.037-.8.045-1.06.045-3.105s-.009-2.3-.045-3.105a5.529,5.529,0,0,0-.35-1.828,3.851,3.851,0,0,0-2.2-2.2,5.528,5.528,0,0,0-1.828-.35C14.351,4.527,14.095,4.519,12.05,4.519Zm0,1.357c2.011,0,2.249.008,3.043.044a4.167,4.167,0,0,1,1.4.259A2.494,2.494,0,0,1,17.92,7.608a4.166,4.166,0,0,1,.259,1.4c.036.794.044,1.032.044,3.043s-.008,2.249-.044,3.043a4.166,4.166,0,0,1-.259,1.4,2.494,2.494,0,0,1-1.429,1.429,4.166,4.166,0,0,1-1.4.259c-.794.036-1.032.044-3.043.044S9.8,18.216,9.006,18.18a4.166,4.166,0,0,1-1.4-.259,2.494,2.494,0,0,1-1.429-1.429,4.167,4.167,0,0,1-.259-1.4c-.036-.794-.044-1.032-.044-3.043s.008-2.249.044-3.043a4.167,4.167,0,0,1,.259-1.4A2.494,2.494,0,0,1,7.608,6.179a4.167,4.167,0,0,1,1.4-.259C9.8,5.883,10.039,5.876,12.05,5.876Zm0,2.307a3.867,3.867,0,1,0,3.867,3.867A3.867,3.867,0,0,0,12.05,8.182Zm0,6.378a2.51,2.51,0,1,1,2.51-2.51A2.51,2.51,0,0,1,12.05,14.56Zm4.924-6.53a.9.9,0,1,1-.9-.9A.9.9,0,0,1,16.973,8.03Z" fill="#fff" fill-rule="evenodd"/></svg>