<svg xmlns="http://www.w3.org/2000/svg" width="40" height="40" viewBox="0 0 40 40"><g transform="translate(-1112 -32)"><g transform="translate(1112 32)" fill="#fff" stroke="#90278e" stroke-width="2"><rect width="40" height="40" rx="5" stroke="none"/><rect x="1" y="1" width="38" height="38" rx="4" fill="none"/></g><g transform="translate(744 8)"><rect width="24" height="24" transform="translate(376 32)" fill="none"/><path d="M227.868,255.131h11.358a3.407,3.407,0,0,0,3.407-3.407v-9.655a3.407,3.407,0,0,0-3.407-3.407H227.868a3.407,3.407,0,0,0-3.407,3.407v9.655a3.407,3.407,0,0,0,3.407,3.407Zm-1.136-13.062a1.136,1.136,0,0,1,1.136-1.136h11.358a1.136,1.136,0,0,1,1.136,1.136v.511l-5.415,3.868a2.445,2.445,0,0,1-2.8,0l-5.415-3.868Zm0,3.3,4.095,2.925a4.679,4.679,0,0,0,5.441,0l4.095-2.925v6.352a1.136,1.136,0,0,1-1.136,1.136H227.869a1.136,1.136,0,0,1-1.136-1.136Z" transform="translate(154.539 -202.662)" fill="#90278e"/></g></g></svg>